<?xml version="1.0" encoding="UTF-8"?>
<svg id="Layer_2" data-name="Layer 2" xmlns="http://www.w3.org/2000/svg" viewBox="0 0 293.63 91.75">
  <defs>
    <style>
      .cls-1 {
        fill: #fff;
      }

      .cls-2 {
        fill: #06c;
      }

      .cls-3 {
        fill: #edd227;
      }
    </style>
  </defs>
  <g id="Layer_1-2" data-name="Layer 1">
    <path class="cls-2" d="m33.06,34.43l-.05,22.38c0,1.04-.05,2.11-.14,3.17-.23,2.96-1.03,5.58-2.37,7.79-1.34,2.23-3.2,3.97-5.5,5.16-2.28,1.19-5.96,1.8-8.97,1.8-3.01-.03-5.69-.65-7.98-1.84-2.3-1.2-4.16-2.93-5.53-5.14-1.36-2.18-2.15-4.79-2.37-7.78-.1-.98-.15-2.05-.15-3.16l.05-22.38h9.74l-.05,22.71c0,2.84.55,4.9,1.64,6.13,1.07,1.21,2.59,1.8,4.65,1.8s4.53-.59,5.61-1.8c1.11-1.23,1.65-3.29,1.62-6.12l.06-22.72h9.74Z"/>
    <path class="cls-2" d="m75.26,74.72h-11.24l-.07-23.04c-.27-4.97-2.52-7.45-6.75-7.45s-6.65,2.4-6.84,7.18l-.07,23.32h-11.46v-40.3h9.67v2.28c1.15-.68,2.42-1.22,3.81-1.63,1.41-.43,3.03-.64,4.88-.64,2.52,0,4.82.36,6.88,1.08,2.07.71,3.92,2.08,5.54,4.09,1.84-2.01,3.73-3.38,5.69-4.09,1.96-.72,4.2-1.08,6.73-1.08,3.53-.05,6.62.59,9.26,1.92,2.65,1.31,4.74,3.13,6.26,5.47,1.51,2.34,2.34,5.11,2.47,8.29.04.46.07.95.11,1.49.03.53.04,1.04.04,1.53v21.6h-11.11v-18.64c0-1.6-.07-3.16-.2-4.68-.33-4.69-2.61-7.08-6.84-7.18-4.23,0-6.51,2.46-6.84,7.39l.06,23.11Z"/>
    <path class="cls-2" d="m115.39,54.62c0,3.1.86,5.57,2.58,7.45,1.72,1.88,3.97,2.81,6.74,2.81s4.91-.91,6.61-2.75c1.7-1.83,2.58-4.26,2.62-7.3v-.21c0-3.08-.88-5.54-2.62-7.38-1.74-1.86-3.94-2.82-6.61-2.88-2.68,0-4.9.95-6.67,2.83-1.76,1.88-2.64,4.35-2.64,7.43Zm29.36-17.19v37.32h-10.93v-4.42c-1.54,1.44-3.33,2.58-5.38,3.4-2.05.81-4.44,1.12-7.2.94-3.31-.28-6.27-1.35-8.88-3.23-2.6-1.88-4.65-4.28-6.14-7.22-1.5-2.95-2.25-6.15-2.25-9.61s.76-6.63,2.27-9.56c1.52-2.95,3.59-5.36,6.19-7.24,2.6-1.89,5.53-2.96,8.81-3.23.36-.04.76-.07,1.18-.11.42-.03.88-.04,1.34-.04,1.98-.05,4.3.11,6.93.46,2.62.34,4.98.93,7.07,1.78.58-.08,1.09-.15,1.51-.23s.78-.09,1.07-.05c1.62.29,3.09.62,4.41,1.03Z"/>
    <path class="cls-2" d="m161.11,54.56c0,3.09.87,5.56,2.61,7.43,1.75,1.87,4.03,2.8,6.82,2.8,2.29,0,4.26-.65,5.91-1.96s2.74-3.07,3.25-5.27c.13-.91.21-1.81.21-2.72v-3.13c0-.21-.03-.4-.09-.59-.32-1.9-1.23-3.48-2.74-4.77-1.52-1.29-3.69-1.94-6.54-1.94-2.7,0-4.96.93-6.75,2.78-1.78,1.86-2.68,4.31-2.68,7.38Zm22.3-20.14h7.43v38.65c0,4.42-.97,8-2.89,10.75-1.93,2.76-4.48,4.76-7.64,6-3.16,1.24-6.62,1.88-10.39,1.93-2.21,0-4.43-.2-6.65-.59-2.23-.38-4.28-1.06-6.16-2.05-1.87-1-3.43-2.4-4.68-4.2l5.78-7.11c1.33,1.13,3,2.07,4.99,2.85,2,.76,4.25,1.13,6.78,1.08,1.33-.04,2.66-.3,3.99-.77,1.33-.48,2.5-1.24,3.51-2.28,1.02-1.03,1.64-2.4,1.87-4.12.13-.55.21-1.11.25-1.7.05-.58.11-1.17.15-1.76-1.33,1.18-2.85,2.05-4.54,2.62-1.69.56-3.5.88-5.44.96h-1.17c-.41,0-.8-.03-1.17-.07-2.52-.13-4.87-.76-7.05-1.86-2.17-1.1-4.07-2.58-5.69-4.43-1.63-1.85-2.9-3.95-3.8-6.3-.89-2.35-1.34-4.84-1.34-7.46s.44-5.02,1.34-7.36c.91-2.35,2.17-4.45,3.8-6.28,1.62-1.84,3.52-3.32,5.69-4.45,2.18-1.13,4.53-1.78,7.05-1.94h3.38c2.21.04,4.4.35,6.56.94,2.17.59,4.22,1.57,5.97,2.91l.06-3.96Z"/>
    <path class="cls-2" d="m223.24,74.72h-11.46v-40.3h9.67v2.71c1.28-.83,2.7-1.5,4.3-1.98,1.59-.48,3.35-.72,5.28-.72,3.95-.05,7.33.67,10.16,2.15,2.84,1.47,5.02,3.55,6.54,6.24,1.52,2.68,2.25,5.87,2.19,9.56l.09,22.34h-11.12l-.06-20.61c0-6.59-2.6-9.88-7.8-9.88-4.74,0-7.3,2.6-7.66,7.8-.05.55-.08,1.14-.11,1.76-.02.63-.02,1.26-.02,1.9v19.04Z"/>
    <path class="cls-2" d="m266.28,50.25h16.56c-.09-1.18-.5-2.31-1.22-3.42-.73-1.12-1.71-2.03-2.93-2.75-1.22-.72-2.64-1.09-4.26-1.09-2.26,0-4.1.71-5.51,2.1-1.4,1.4-2.28,3.12-2.64,5.16Zm17.59,11.49l9.1,2.03c-.73,1.71-1.84,3.43-3.34,5.13-1.5,1.69-3.43,3.09-5.8,4.19-2.38,1.1-5.33,1.66-8.85,1.66-2.49,0-4.94-.46-7.34-1.38-2.41-.92-4.58-2.26-6.52-4.02-1.94-1.77-3.48-3.89-4.61-6.36-1.13-2.47-1.7-5.27-1.7-8.4s.53-5.69,1.6-8.15c1.06-2.48,2.5-4.6,4.34-6.4,1.83-1.79,3.91-3.17,6.25-4.15,2.33-.97,4.74-1.46,7.23-1.46,6.34,0,11.16,2.09,14.46,6.24,3.3,4.16,4.95,9.85,4.95,17.04h-27.56c.36,2.14,1.37,3.91,3.02,5.3,1.66,1.4,3.6,2.21,5.81,2.45,1.73.19,3.4-.07,5.03-.75,1.64-.68,2.95-1.68,3.94-2.97Z"/>
    <path class="cls-1" d="m196.92,35.46c-.05-.35-.08-.7-.08-1.04h9c-.01.19-.02.38-.04.58-.16,1.29-.85,2.55-1.92,3.28-.73.5-1.62.75-2.5.75-.26,0-.51-.02-.76-.06-.99-.16-1.92-.62-2.61-1.34-.56-.61-.94-1.36-1.09-2.17Z"/>
    <path class="cls-2" d="m206.98,37.72v37h-11.34v-36.99c.25.46.56.89.92,1.27.97,1.02,2.3,1.71,3.74,1.94.35.06.71.09,1.08.09,1.3,0,2.59-.39,3.62-1.09.82-.55,1.5-1.32,1.98-2.22Z"/>
    <path class="cls-3" d="m213.66,13.62c-.21,1.89-.83,3.73-1.73,5.41-.82,1.52-1.87,2.91-2.9,4.31-1.18,1.61-2.36,3.28-2.86,5.22-.14.54-.22,1.1-.28,1.66-.08.71-.14,1.41-.13,2.11.02.7.1,1.4.08,2.09-.01.19-.02.38-.04.58-.16,1.29-.85,2.55-1.92,3.28-.73.5-1.62.75-2.5.75-.26,0-.51-.02-.76-.06-.99-.16-1.92-.62-2.61-1.34-.56-.61-.94-1.36-1.09-2.17-.05-.35-.08-.7-.08-1.04-.01-.27-.01-.53-.01-.8.01-.76-.01-1.51,0-2.28.02-.69.06-1.39-.12-2.06-.02-.11-.05-.21-.09-.31-.17-.62-.4-1.23-.66-1.8-.65-1.42-1.55-2.7-2.45-3.95-.7-.97-1.4-1.93-2.02-2.95-.79-1.29-1.43-2.67-1.9-4.12-.37-1.17-.64-2.38-.7-3.62-.09-2.02.37-4.06,1.31-5.86.69-1.31,1.61-2.5,2.71-3.48,1.42-1.23,3.11-2.14,4.89-2.66,1.19-.35,2.43-.53,3.66-.53.58,0,1.15.04,1.72.12,1.96.27,3.86,1.01,5.49,2.14,1.86,1.3,3.35,3.11,4.21,5.2.79,1.94,1.02,4.08.78,6.16Z"/>
  </g>
</svg>