<svg version="1.2" xmlns="http://www.w3.org/2000/svg" viewBox="0 0 174 41" width="174" height="41"><style>.a{fill:#fff}.b{fill:#edd227}</style><path class="a" d="m26.5 19v8.6q0 0.6 0 1.2-0.2 1.7-0.9 3-0.8 1.3-2.1 2c-0.9 0.5-2.3 0.7-3.5 0.7q-1.8 0-3.1-0.7-1.3-0.7-2.1-2-0.8-1.2-0.9-3-0.1-0.5-0.1-1.2v-8.6h3.8v8.7q0 1.7 0.6 2.4 0.6 0.7 1.8 0.7c0.8 0 1.7-0.2 2.2-0.7q0.6-0.7 0.6-2.4v-8.7h3.8z"/><path class="a" d="m42.8 34.5h-4.3v-8.9q-0.2-2.8-2.6-2.8c-1.7 0-2.6 0.9-2.7 2.7v9h-4.4v-15.5h3.7v0.9q0.7-0.4 1.5-0.7 0.8-0.2 1.8-0.2 1.5 0 2.7 0.4 1.2 0.4 2.1 1.6 1.1-1.2 2.2-1.6 1.2-0.4 2.6-0.4 2.1-0.1 3.6 0.7 1.5 0.8 2.4 2.1 0.9 1.4 1 3.2 0 0.3 0 0.6 0 0.3 0 0.6v8.3h-4.3v-7.2q0-0.9 0-1.8-0.2-2.7-2.7-2.8-2.4 0-2.6 2.9v8.9z"/><path fill-rule="evenodd" class="a" d="m69.6 20.1v14.4h-4.2v-1.7q-0.9 0.9-2 1.3-1.2 0.5-2.8 0.4-1.9-0.2-3.4-1.2-1.6-1.1-2.4-2.8-0.9-1.7-0.9-3.7 0-2 0.9-3.7 0.9-1.7 2.4-2.8 1.5-1.1 3.4-1.3 0.2 0 0.4 0 0.3 0 0.6 0 1.1-0.1 2.6 0.2 1.5 0.2 2.8 0.6 0.3 0 0.5 0 0.3-0.1 0.4-0.1 1 0.2 1.7 0.4zm-11.3 6.7q0 1.8 1 2.8 1 1.1 2.6 1.1c1.1 0 1.9-0.3 2.5-1q1-1.1 1.1-2.9 0-1.8-1.1-2.9-1-1.1-2.5-1.1-1.5 0-2.6 1.1-1 1.1-1 2.9z"/><path fill-rule="evenodd" class="a" d="m84.6 19h2.8v14.9q0 2.5-1.1 4.1-1.1 1.6-2.9 2.3-1.9 0.8-4 0.8-1.3 0-2.6-0.2-1.3-0.3-2.4-0.8-1.1-0.6-1.8-1.7l2.2-2.7q0.8 0.7 2 1.1 1.1 0.4 2.6 0.4 0.7 0 1.5-0.3 0.8-0.3 1.4-0.9 0.5-0.6 0.7-1.5 0.1-0.4 0.1-0.7 0-0.3 0-0.7-0.7 0.7-1.7 1-1 0.4-2.1 0.4h-0.5q-0.2 0-0.4 0-1.5-0.1-2.7-0.7-1.3-0.7-2.2-1.8-1-1-1.5-2.4-0.5-1.4-0.5-2.9 0-1.5 0.5-2.8 0.5-1.4 1.5-2.4 0.9-1.1 2.2-1.8 1.2-0.6 2.7-0.7h1.3q1.3 0 2.5 0.4c0.9 0.2 1.7 0.6 2.3 1.1v-1.6zm-8.6 7.8q0 1.8 1 2.9 1.1 1.1 2.7 1.1 1.3 0 2.3-0.8 0.9-0.8 1.2-2 0.1-0.6 0.1-1.1v-1.2q0-0.1 0-0.2-0.2-1.1-1.1-1.9-0.9-0.7-2.5-0.7-1.6 0-2.6 1.1-1.1 1-1.1 2.8z"/><path class="a" d="m99.9 34.5h-4.4v-15.5h3.7v1q0.8-0.5 1.7-0.8 0.9-0.2 2-0.2 2.3-0.1 4 0.8 1.6 0.8 2.5 2.4 0.9 1.6 0.8 3.7v8.6h-4.2l-0.1-7.9q0-3.8-3-3.8-2.7-0.1-2.9 3-0.1 0.3-0.1 0.6 0 0.4 0 0.8c0 0 0 7.3 0 7.3z"/><path fill-rule="evenodd" class="a" d="m123.3 29.5l3.5 0.8q-0.4 1-1.3 2-0.8 0.9-2.2 1.6-1.4 0.6-3.4 0.6-1.5 0-2.9-0.5-1.4-0.5-2.5-1.6-1.1-1-1.8-2.4-0.6-1.4-0.6-3.2c0-1.2 0.2-2.2 0.6-3.2q0.6-1.4 1.7-2.5 1-1 2.4-1.6 1.3-0.5 2.8-0.5 3.6 0 5.5 2.4 2 2.4 2 6.6h-10.7q0.2 1.2 1.2 2 1 0.8 2.2 1 1 0.1 2-0.3 0.9-0.4 1.5-1.2zm-6.8-4.4h6.4q0-0.7-0.5-1.3-0.4-0.7-1.1-1.1-0.7-0.4-1.6-0.4-1.3 0-2.2 0.8-0.8 0.8-1 2z"/><path  d="m89.8 19.4q-0.1-0.2-0.1-0.4h3.5q0 0.1 0 0.2c-0.1 0.5-0.3 1-0.8 1.3-0.2 0.2-0.6 0.3-0.9 0.3q-0.2 0-0.3-0.1c-0.4 0-0.7-0.2-1-0.5q-0.3-0.3-0.4-0.8z"/><path class="a" d="m93.7 20.3v14.2h-4.4v-14.3q0.1 0.3 0.3 0.5c0.4 0.4 0.9 0.7 1.5 0.8q0.2 0 0.4 0c0.5 0 1-0.1 1.4-0.4q0.5-0.3 0.8-0.9z"/><path class="b" d="m96.2 10.9c-0.1 0.8-0.3 1.5-0.7 2.1-0.3 0.6-0.7 1.2-1.1 1.7-0.4 0.6-0.9 1.3-1.1 2q0 0.3-0.1 0.7 0 0.4 0 0.8c0 0.2 0 0.5 0 0.8q0 0.1 0 0.2c-0.1 0.5-0.3 1-0.8 1.3-0.2 0.1-0.6 0.2-0.9 0.2q-0.2 0.1-0.3 0c-0.4 0-0.7-0.2-1-0.5q-0.3-0.3-0.4-0.8-0.1-0.2-0.1-0.4 0-0.2 0-0.3 0-0.5 0-0.9c0-0.3 0-0.6 0-0.8q0-0.1 0-0.1-0.2-0.4-0.3-0.7c-0.2-0.6-0.6-1.1-0.9-1.5q-0.5-0.6-0.8-1.2-0.5-0.7-0.8-1.6-0.2-0.6-0.2-1.4c-0.1-0.8 0.1-1.5 0.5-2.2q0.4-0.8 1-1.4c0.6-0.4 1.2-0.8 1.9-1q0.7-0.2 1.4-0.2 0.4 0 0.7 0c0.8 0.1 1.5 0.4 2.1 0.9 0.7 0.5 1.3 1.2 1.6 2 0.3 0.7 0.4 1.6 0.3 2.4z"/><path class="b" d="m83.8 13.1l1.6-1c0.1 0 0.2 0 0.3 0.1 0 0.1 0 0.2-0.1 0.3l-1.6 0.9c-0.1 0.1-0.3 0.1-0.3 0-0.1-0.1 0-0.3 0.1-0.3z"/><path class="b" d="m83.6 8.4h1.9c0.1 0 0.2 0.1 0.2 0.2 0 0.1-0.1 0.2-0.2 0.2h-1.9c-0.1 0-0.2-0.1-0.2-0.2 0-0.1 0.1-0.2 0.2-0.2z"/><path class="b" d="m91.7 2.1v1.9c0 0.1-0.1 0.2-0.2 0.2-0.1 0-0.2-0.1-0.2-0.2v-1.9c0-0.1 0.1-0.2 0.2-0.2 0.1 0 0.2 0.1 0.2 0.2z"/><path class="b" d="m85.3 4.5l1.7 0.9c0.1 0.1 0.1 0.2 0.1 0.3-0.1 0.1-0.2 0.1-0.3 0.1l-1.7-1c-0.1 0-0.1-0.2 0-0.3 0-0.1 0.2-0.1 0.2 0z"/><path class="b" d="m99 13.4l-1.6-0.9c-0.1-0.1-0.2-0.2-0.1-0.3 0-0.1 0.2-0.1 0.3-0.1l1.6 1c0.1 0 0.1 0.2 0.1 0.3-0.1 0.1-0.2 0.1-0.3 0z"/><path class="b" d="m99.3 8.8h-1.8c-0.2 0-0.2-0.1-0.2-0.2 0-0.1 0-0.2 0.2-0.2h1.8c0.2 0 0.3 0.1 0.3 0.2 0 0.1-0.1 0.2-0.3 0.2z"/><path class="b" d="m97.8 4.8l-1.6 0.9c-0.1 0.1-0.3 0.1-0.3 0-0.1-0.1 0-0.3 0.1-0.3l1.6-1c0.1 0 0.2 0 0.3 0.1 0 0.1 0 0.2-0.1 0.3z"/></svg>